<?xml version="1.0" standalone="no"?>
<!DOCTYPE svg PUBLIC "-//W3C//DTD SVG 20010904//EN"
 "http://www.w3.org/TR/2001/REC-SVG-20010904/DTD/svg10.dtd">
<svg version="1.0" xmlns="http://www.w3.org/2000/svg"
 width="208.000000pt" height="56.000000pt" viewBox="0 0 208.000000 56.000000"
 preserveAspectRatio="xMidYMid meet">

<g transform="translate(0.000000,56.000000) scale(0.100000,-0.100000)"
fill="#000000" stroke="none">
<path d="M900 433 c-24 -9 -60 -45 -60 -60 0 -23 47 -63 74 -63 14 0 41 -8 61
-17 46 -22 50 -64 6 -82 -45 -19 -104 -10 -116 17 -14 31 -27 28 -23 -5 3 -27
5 -28 77 -31 81 -3 111 11 111 54 0 43 -12 53 -86 75 -69 20 -74 24 -74 49 0
33 14 40 77 40 36 0 46 -4 50 -20 7 -28 23 -25 23 5 0 19 -7 26 -37 34 -41 12
-60 12 -83 4z"/>
<path d="M380 420 c0 -5 7 -10 16 -10 9 0 14 -3 12 -7 -2 -5 -25 -51 -51 -105
-26 -53 -47 -100 -47 -105 1 -14 40 38 40 53 0 11 17 14 73 14 l72 0 19 -35
c11 -19 23 -35 28 -35 9 0 4 12 -62 147 -40 84 -48 93 -72 93 -16 0 -28 -4
-28 -10z m75 -76 c15 -31 24 -58 22 -60 -3 -3 -28 -4 -55 -2 l-51 3 27 58 c14
31 27 57 28 57 2 0 14 -25 29 -56z"/>
<path d="M570 420 c0 -5 7 -10 15 -10 12 0 15 -18 15 -104 0 -91 -2 -105 -17
-109 -10 -3 2 -5 27 -5 25 0 37 2 28 5 -16 4 -18 18 -18 109 0 86 3 104 15
104 8 0 15 5 15 10 0 6 -18 10 -40 10 -22 0 -40 -4 -40 -10z"/>
<path d="M1060 330 c0 -5 7 -10 15 -10 12 0 15 -19 15 -115 0 -70 4 -115 10
-115 9 0 12 18 13 78 0 20 5 22 47 22 40 0 50 4 64 25 22 33 20 67 -5 99 -24
30 -69 35 -90 9 -13 -15 -11 -16 11 -10 13 3 35 4 47 1 19 -5 23 -13 23 -48 0
-47 -13 -66 -46 -66 -36 0 -53 25 -48 69 3 27 0 44 -11 55 -18 18 -45 21 -45
6z"/>
<path d="M1293 333 c-15 -6 -18 -53 -3 -53 6 0 10 9 10 20 0 14 7 20 24 20 38
0 56 -10 56 -31 0 -15 -6 -19 -29 -17 -46 3 -83 -21 -79 -51 3 -22 9 -26 41
-29 21 -2 44 2 52 8 9 8 15 8 20 0 3 -5 18 -10 33 -9 26 0 26 1 5 9 -19 8 -23
17 -23 55 0 67 -13 85 -58 84 -20 0 -43 -3 -49 -6z m87 -92 c0 -14 -41 -41
-61 -41 -16 0 -32 33 -21 44 9 10 82 7 82 -3z"/>
<path d="M1475 315 c-30 -31 -32 -71 -6 -103 23 -27 105 -32 115 -7 6 17 -15
20 -31 4 -33 -33 -90 23 -77 75 10 40 87 47 97 8 3 -10 5 -7 6 9 2 46 -63 54
-104 14z"/>
<path d="M1657 328 c-27 -21 -36 -59 -23 -98 11 -34 13 -35 64 -38 40 -2 54 1
58 13 9 23 -1 28 -19 10 -22 -22 -57 -19 -79 8 l-20 22 61 3 c59 3 61 4 61 31
0 50 -62 80 -103 49z m67 -14 c9 -3 16 -12 16 -20 0 -10 -13 -14 -45 -14 -47
0 -58 12 -27 29 20 12 34 13 56 5z"/>
<path d="M690 272 c0 -4 19 -6 43 -4 70 5 76 10 15 11 -32 0 -58 -2 -58 -7z"/>
</g>
</svg>
